<?xml version="1.0" encoding="utf-8"?><svg xmlns="http://www.w3.org/2000/svg" xmlns:xlink="http://www.w3.org/1999/xlink"><symbol fill="none" viewBox="0 0 80 80" id="flash.svg" xmlns="http://www.w3.org/2000/svg"><path d="M10.678 46.398a3.97 3.97 0 0 1-1.961-.505 3.444 3.444 0 0 1-1.358-1.37 3.01 3.01 0 0 1-.334-1.811c.082-.62.357-1.207.794-1.692L44.105 7.37a1.888 1.888 0 0 1 1.052-.543 2.012 2.012 0 0 1 1.198.168c.366.176.655.46.82.803.163.344.193.728.082 1.089l-7.037 19.86a2.993 2.993 0 0 0-.203 1.568c.074.53.29 1.035.628 1.473.34.437.791.795 1.317 1.041.526.246 1.11.374 1.703.373h25.657a3.972 3.972 0 0 1 1.961.504 3.443 3.443 0 0 1 1.358 1.37c.3.564.415 1.192.334 1.812a3.138 3.138 0 0 1-.794 1.691L35.895 72.23a1.888 1.888 0 0 1-1.052.542 2.012 2.012 0 0 1-1.198-.167 1.73 1.73 0 0 1-.82-.804 1.497 1.497 0 0 1-.082-1.088l7.037-19.861c.208-.5.277-1.038.203-1.567a3.112 3.112 0 0 0-.628-1.473 3.575 3.575 0 0 0-1.317-1.042 3.996 3.996 0 0 0-1.703-.372H10.678Z" stroke="#0EBCC9" stroke-width="6.67" stroke-linecap="round" stroke-linejoin="round"/></symbol><symbol fill="none" viewBox="0 0 80 80" id="relogio.svg" xmlns="http://www.w3.org/2000/svg"><path d="M40 73.333c18.41 0 33.333-14.923 33.333-33.333C73.333 21.59 58.41 6.667 40 6.667 21.59 6.667 6.667 21.59 6.667 40 6.667 58.41 21.59 73.333 40 73.333Z" stroke="#0EBCC9" stroke-width="6.667"/><path d="M40 20v20l13.333 6.667" stroke="#0EBCC9" stroke-width="6.667" stroke-linecap="round"/></symbol></svg>